# xmcd
#
# Track frame offsets: 
#        150
#        15285
#        32292
#        49237
#
# Disc length: 856 seconds
#
# Revision: 0
# Processed by: cddbd v1.5.2PL0 Copyright (c) Steve Scherf et al.
# Submitted via: ExactAudioCopyFreeDBPlugin 1.0
#
DISCID=1f035604
DTITLE=ANGELS' STORY - AOA
DYEAR=2012
DGENRE=Dance
TTITLE0=elvis
TTITLE1=love is only you
TTITLE2=temptation
TTITLE3=elvis
EXTD=
EXTT0=
EXTT1=
EXTT2=
EXTT3=
PLAYORDER=
